<svg width="24" height="24" viewBox="0 0 24 24" fill="none" xmlns="http://www.w3.org/2000/svg">
<path d="M18.5 9.62127C18.5 9.48868 18.4475 9.35608 18.335 9.2514C18.1176 9.04901 17.7577 9.04901 17.5402 9.2514L12.6514 13.8016C12.2915 14.1365 11.7066 14.1365 11.3467 13.8016L6.45789 9.2514C6.24045 9.04901 5.88053 9.04901 5.66309 9.2514C5.44564 9.45378 5.44564 9.78876 5.66309 9.99115L10.5519 14.5413C10.9343 14.8972 11.4517 15.0996 11.9991 15.0996C12.5464 15.0996 13.0638 14.9042 13.4462 14.5413L18.335 9.99115C18.44 9.88647 18.5 9.75387 18.5 9.62127Z" fill="#58667E" stroke="#58667E" stroke-width="0.5"/>
</svg>
