<svg width="40" height="40" viewBox="0 0 40 40" fill="none" xmlns="http://www.w3.org/2000/svg">
    <rect width="40" height="40" rx="20" fill="black" fill-opacity="0.31" />
    <path
      opacity="0.9"
      d="M27.75 26.5625C28.3023 26.5625 28.75 27.0102 28.75 27.5625V27.75C28.75 28.3023 28.3023 28.75 27.75 28.75H12.25C11.6977 28.75 11.25 28.3023 11.25 27.75V27.5625C11.25 27.0102 11.6977 26.5625 12.25 26.5625H27.75ZM27.75 18.9062C28.3023 18.9062 28.75 19.354 28.75 19.9062V20.0938C28.75 20.646 28.3023 21.0937 27.75 21.0938H12.25C11.6977 21.0938 11.25 20.646 11.25 20.0938V19.9062C11.25 19.354 11.6977 18.9063 12.25 18.9062H27.75ZM27.75 11.25C28.3023 11.25 28.75 11.6977 28.75 12.25V12.4375C28.75 12.9898 28.3023 13.4375 27.75 13.4375H12.25C11.6977 13.4375 11.25 12.9898 11.25 12.4375V12.25C11.25 11.6977 11.6977 11.25 12.25 11.25H27.75Z"
      fill="white"
    />
  </svg>
