<svg width="40" height="40" viewBox="0 0 40 40" fill="none" xmlns="http://www.w3.org/2000/svg">
<path d="M20 40C31.0457 40 40 31.0457 40 20C40 8.95431 31.0457 0 20 0C8.95431 0 0 8.95431 0 20C0 31.0457 8.95431 40 20 40Z" fill="url(#paint0_linear_1624_61186)"/>
<path d="M10.4526 18.3145H28.7944V27.4859C28.7941 28.1808 28.5179 28.8472 28.0265 29.3386C27.5351 29.83 26.8687 30.1062 26.1738 30.1065H13.0732C12.3783 30.1062 11.7119 29.83 11.2205 29.3386C10.7291 28.8472 10.4529 28.1808 10.4526 27.4859V18.3145Z" fill="url(#paint1_linear_1624_61186)"/>
<path d="M19.6035 14.8649L19.8321 15.6923H18.9727C14.2458 15.6923 11.7612 14.8431 11.7612 12.7997C11.7612 10.3369 12.8618 9.14258 14.9612 9.14258C16.6275 9.14258 17.7807 10.338 18.6298 12.098C19.0235 12.9945 19.349 13.9194 19.6035 14.8649ZM17.4435 13.2409C17.1833 12.8091 16.8204 12.4482 16.3872 12.1904C15.9539 11.9326 15.4637 11.7859 14.9601 11.7631C13.6081 11.7631 13.0732 12.1506 13.0732 13.3243C13.0732 13.8957 14.6732 14.3094 18.0938 14.3723C17.9101 13.9771 17.6926 13.5985 17.4435 13.2409Z" fill="url(#paint2_linear_1624_61186)"/>
<path d="M19.8551 14.8649L19.6265 15.6923H20.4859C25.2128 15.6923 27.6973 14.8431 27.6973 12.7997C27.6973 10.3369 26.5968 9.14258 24.4973 9.14258C22.8311 9.14258 21.6779 10.338 20.8288 12.098C20.4259 12.9908 20.1001 13.9165 19.8551 14.8649ZM22.0139 13.2397C22.274 12.8079 22.6368 12.447 23.0701 12.1892C23.5034 11.9314 23.9937 11.7846 24.4973 11.762C25.8493 11.762 26.3842 12.1494 26.3842 13.3231C26.3842 13.8946 24.7842 14.3083 21.3636 14.3711C21.5436 13.9744 21.7613 13.5958 22.0139 13.2409V13.2397Z" fill="url(#paint3_linear_1624_61186)"/>
<g filter="url(#filter0_d_1624_61186)">
<path d="M11.76 14.3887H27.4845C28.1796 14.3887 28.8461 14.6648 29.3376 15.1562C29.829 15.6477 30.1051 16.3142 30.1051 17.0092C30.1051 17.7043 29.829 18.3708 29.3376 18.8623C28.8461 19.3537 28.1796 19.6298 27.4845 19.6298H11.76C11.065 19.6298 10.3984 19.3537 9.90695 18.8623C9.4155 18.3708 9.1394 17.7043 9.1394 17.0092C9.1394 16.3142 9.4155 15.6477 9.90695 15.1562C10.3984 14.6648 11.065 14.3887 11.76 14.3887Z" fill="url(#paint4_linear_1624_61186)"/>
</g>
<path d="M17.0037 19.625H22.2437V30.1061H17.0037V19.625Z" fill="#E671F8"/>
<g filter="url(#filter1_d_1624_61186)">
<path d="M17.0059 14.3794C17.2723 13.9206 17.6545 13.5398 18.1143 13.2751C18.5741 13.0104 19.0953 12.8711 19.6259 12.8711C20.1564 12.8711 20.6776 13.0104 21.1374 13.2751C21.5972 13.5398 21.9794 13.9206 22.2458 14.3794V19.6194H17.0059V14.3794Z" fill="#F490FD"/>
</g>
<defs>
<filter id="filter0_d_1624_61186" x="7.1394" y="12.3887" width="24.9658" height="9.24023" filterUnits="userSpaceOnUse" color-interpolation-filters="sRGB">
<feFlood flood-opacity="0" result="BackgroundImageFix"/>
<feColorMatrix in="SourceAlpha" type="matrix" values="0 0 0 0 0 0 0 0 0 0 0 0 0 0 0 0 0 0 127 0" result="hardAlpha"/>
<feOffset/>
<feGaussianBlur stdDeviation="1"/>
<feColorMatrix type="matrix" values="0 0 0 0 0.65098 0 0 0 0 0.101961 0 0 0 0 0.752941 0 0 0 1 0"/>
<feBlend mode="normal" in2="BackgroundImageFix" result="effect1_dropShadow_1624_61186"/>
<feBlend mode="normal" in="SourceGraphic" in2="effect1_dropShadow_1624_61186" result="shape"/>
</filter>
<filter id="filter1_d_1624_61186" x="16.0059" y="12.8711" width="7.23999" height="8.74805" filterUnits="userSpaceOnUse" color-interpolation-filters="sRGB">
<feFlood flood-opacity="0" result="BackgroundImageFix"/>
<feColorMatrix in="SourceAlpha" type="matrix" values="0 0 0 0 0 0 0 0 0 0 0 0 0 0 0 0 0 0 127 0" result="hardAlpha"/>
<feOffset dy="1"/>
<feGaussianBlur stdDeviation="0.5"/>
<feColorMatrix type="matrix" values="0 0 0 0 0.901961 0 0 0 0 0.443137 0 0 0 0 0.972549 0 0 0 1 0"/>
<feBlend mode="normal" in2="BackgroundImageFix" result="effect1_dropShadow_1624_61186"/>
<feBlend mode="normal" in="SourceGraphic" in2="effect1_dropShadow_1624_61186" result="shape"/>
</filter>
<linearGradient id="paint0_linear_1624_61186" x1="33" y1="34.68" x2="6.24" y2="7.44" gradientUnits="userSpaceOnUse">
<stop stop-color="#821CED"/>
<stop offset="1" stop-color="#E7166B"/>
</linearGradient>
<linearGradient id="paint1_linear_1624_61186" x1="19.6235" y1="18.3145" x2="19.6235" y2="30.1065" gradientUnits="userSpaceOnUse">
<stop stop-color="#ED91FB"/>
<stop offset="1" stop-color="#FEC7FF"/>
</linearGradient>
<linearGradient id="paint2_linear_1624_61186" x1="15.7967" y1="9.14258" x2="15.7967" y2="15.6923" gradientUnits="userSpaceOnUse">
<stop stop-color="#FEE4FF"/>
<stop offset="1" stop-color="#E974F8"/>
</linearGradient>
<linearGradient id="paint3_linear_1624_61186" x1="23.6619" y1="9.14258" x2="23.6619" y2="15.6923" gradientUnits="userSpaceOnUse">
<stop stop-color="#FEE4FF"/>
<stop offset="1" stop-color="#E974F8"/>
</linearGradient>
<linearGradient id="paint4_linear_1624_61186" x1="19.6223" y1="14.3887" x2="19.6223" y2="19.6298" gradientUnits="userSpaceOnUse">
<stop stop-color="#FEB4FF"/>
<stop offset="1" stop-color="#FFEDFF"/>
</linearGradient>
</defs>
</svg>
