<svg width="16" height="17" viewBox="0 0 16 17" fill="none" xmlns="http://www.w3.org/2000/svg">
<g filter="url(#filter0_d_1458_45433)">
<path fill-rule="evenodd" clip-rule="evenodd" d="M7.82964 1.65221C7.93715 1.59059 8.06926 1.59059 8.17677 1.65221L13.1493 4.50197C13.2578 4.56418 13.3248 4.67972 13.3248 4.80482V10.4999C13.3248 10.625 13.2578 10.7405 13.1493 10.8028L8.17677 13.6525C8.06926 13.7141 7.93715 13.7141 7.82964 13.6525L2.85714 10.8028C2.7486 10.7405 2.68165 10.625 2.68165 10.4999V4.80482C2.68165 4.67972 2.7486 4.56418 2.85714 4.50197L7.82964 1.65221Z" fill="url(#paint0_linear_1458_45433)"/>
</g>
<path d="M7.91895 2.47559C7.97269 2.44482 8.03904 2.44479 8.09277 2.47559L12.4814 4.99121C12.5357 5.02231 12.5693 5.08002 12.5693 5.14258V10.1689C12.5693 10.2315 12.5357 10.2892 12.4814 10.3203L8.09277 12.8359C8.03904 12.8667 7.97269 12.8667 7.91895 12.8359L3.5293 10.3203C3.47516 10.2892 3.44141 10.2314 3.44141 10.1689V5.14258C3.44141 5.08011 3.47515 5.02234 3.5293 4.99121L7.91895 2.47559Z" fill="url(#paint1_linear_1458_45433)" stroke="#0C1C66" stroke-width="0.349067"/>
<path fill-rule="evenodd" clip-rule="evenodd" d="M7.99573 2.47656L8.00299 7.62521L3.45752 5.03593L7.99573 2.47656Z" fill="url(#paint2_linear_1458_45433)"/>
<path fill-rule="evenodd" clip-rule="evenodd" d="M12.5334 5.04433L8.00241 7.62233L8.00967 2.47368L12.5334 5.04433Z" fill="url(#paint3_linear_1458_45433)"/>
<path fill-rule="evenodd" clip-rule="evenodd" d="M8.00502 7.60827L3.46828 10.2551L3.45955 5.02215L8.00502 7.60827Z" fill="url(#paint4_linear_1458_45433)"/>
<g filter="url(#filter1_i_1458_45433)">
<path fill-rule="evenodd" clip-rule="evenodd" d="M8.00354 7.60938L8.0108 12.859L3.4668 10.2563L8.00354 7.60938Z" fill="url(#paint5_linear_1458_45433)"/>
</g>
<path fill-rule="evenodd" clip-rule="evenodd" d="M8.00299 7.62602L12.5339 10.2254L8.01024 12.8059L8.00299 7.62602Z" fill="url(#paint6_linear_1458_45433)"/>
<path fill-rule="evenodd" clip-rule="evenodd" d="M10.3275 10.6437C10.3242 10.465 10.1803 10.3203 10.0005 10.3151L9.81971 10.3098L10.0005 10.3045C10.1803 10.2992 10.3242 10.1546 10.3275 9.9759L10.3364 9.49219L10.3453 9.9759C10.3486 10.1546 10.4926 10.2992 10.6724 10.3045L10.8531 10.3098L10.6724 10.3151C10.4926 10.3203 10.3486 10.465 10.3453 10.6437L10.3364 11.1274L10.3275 10.6437Z" fill="#F5F6F8"/>
<path fill-rule="evenodd" clip-rule="evenodd" d="M10.3568 10.3715L10.2485 10.4356L10.3131 10.328L10.2485 10.2204L10.3568 10.2845L10.4651 10.2204L10.4006 10.328L10.4651 10.4356L10.3568 10.3715Z" fill="white"/>
<path fill-rule="evenodd" clip-rule="evenodd" d="M8.00363 7.62471L12.5418 5.02458L12.493 10.1616L8.00363 7.62471Z" fill="url(#paint7_linear_1458_45433)"/>
<path d="M7.91895 2.47559C7.97269 2.44482 8.03904 2.44479 8.09277 2.47559L12.4814 4.99121C12.5357 5.02231 12.5693 5.08002 12.5693 5.14258V10.1689C12.5693 10.2315 12.5357 10.2892 12.4814 10.3203L8.09277 12.8359C8.03904 12.8667 7.97269 12.8667 7.91895 12.8359L3.5293 10.3203C3.47516 10.2892 3.44141 10.2314 3.44141 10.1689V5.14258C3.44141 5.08011 3.47515 5.02234 3.5293 4.99121L7.91895 2.47559Z" stroke="#0C1C66" stroke-width="0.349067"/>
<path d="M7.91357 2.91992C7.96975 2.88773 8.03904 2.88773 8.09521 2.91992L12.1196 5.22656C12.1763 5.25907 12.2114 5.31939 12.2114 5.38477V9.99316C12.2114 10.0585 12.1763 10.1188 12.1196 10.1514L8.09521 12.458C8.03904 12.4902 7.96975 12.4902 7.91357 12.458L3.88916 10.1514C3.83244 10.1189 3.79736 10.0585 3.79736 9.99316V5.38477C3.79736 5.31939 3.83244 5.25907 3.88916 5.22656L7.91357 2.91992Z" stroke="white" stroke-width="0.333333"/>
<path fill-rule="evenodd" clip-rule="evenodd" d="M3.25776 6.98047L3.99939 7.51325L3.25776 8.04602L2.69727 7.51325L3.25776 6.98047Z" fill="#84AAF3" stroke="#3B6CCB" stroke-width="0.333333"/>
<path fill-rule="evenodd" clip-rule="evenodd" d="M3.27296 7.1543V7.51096H2.84229L3.27296 7.1543Z" fill="#FEEA6C"/>
<path fill-rule="evenodd" clip-rule="evenodd" d="M3.27339 7.1543V7.51096H3.79248L3.27339 7.1543Z" fill="#E2A20F"/>
<path fill-rule="evenodd" clip-rule="evenodd" d="M3.27339 7.86914V7.51248H3.79248L3.27339 7.86914Z" fill="#FEEA6C"/>
<path fill-rule="evenodd" clip-rule="evenodd" d="M3.27296 7.86914V7.51248H2.84229L3.27296 7.86914Z" fill="#E2A20F"/>
<path fill-rule="evenodd" clip-rule="evenodd" d="M12.6275 8.04102L11.8859 7.50824L12.6275 6.97546L13.188 7.50824L12.6275 8.04102Z" fill="#84AAF3" stroke="#3B6CCB" stroke-width="0.333333"/>
<path fill-rule="evenodd" clip-rule="evenodd" d="M12.6128 7.86914V7.51248H13.0435L12.6128 7.86914Z" fill="#FEEA6C"/>
<path fill-rule="evenodd" clip-rule="evenodd" d="M12.6123 7.86914V7.51248H12.0933L12.6123 7.86914Z" fill="#E2A20F"/>
<path fill-rule="evenodd" clip-rule="evenodd" d="M12.6123 7.1543V7.51096H12.0933L12.6123 7.1543Z" fill="#FEEA6C"/>
<path fill-rule="evenodd" clip-rule="evenodd" d="M12.6128 7.1543V7.51096H13.0435L12.6128 7.1543Z" fill="#E2A20F"/>
<path fill-rule="evenodd" clip-rule="evenodd" d="M8.55664 2.4339L8.02047 3.17084L7.4843 2.4339L8.02047 1.87695L8.55664 2.4339Z" fill="#84AAF3" stroke="#3B6CCB" stroke-width="0.333333"/>
<path fill-rule="evenodd" clip-rule="evenodd" d="M8.37891 2.44944H8.01998V2.02148L8.37891 2.44944Z" fill="#FEEA6C"/>
<path fill-rule="evenodd" clip-rule="evenodd" d="M8.37891 2.44709H8.01998V2.96289L8.37891 2.44709Z" fill="#E2A20F"/>
<path fill-rule="evenodd" clip-rule="evenodd" d="M7.66064 2.44709H8.01957V2.96289L7.66064 2.44709Z" fill="#FEEA6C"/>
<path fill-rule="evenodd" clip-rule="evenodd" d="M7.66064 2.44944H8.01957V2.02148L7.66064 2.44944Z" fill="#E2A20F"/>
<path fill-rule="evenodd" clip-rule="evenodd" d="M7.48535 12.9645L8.02152 12.2276L8.55769 12.9645L8.02152 13.5215L7.48535 12.9645Z" fill="#84AAF3" stroke="#3B6CCB" stroke-width="0.333333"/>
<path fill-rule="evenodd" clip-rule="evenodd" d="M7.66309 12.951H8.02202V13.3789L7.66309 12.951Z" fill="#FEEA6C"/>
<path fill-rule="evenodd" clip-rule="evenodd" d="M7.66309 12.9514H8.02202V12.4355L7.66309 12.9514Z" fill="#E2A20F"/>
<path fill-rule="evenodd" clip-rule="evenodd" d="M8.38135 12.9514H8.02242V12.4355L8.38135 12.9514Z" fill="#FEEA6C"/>
<path fill-rule="evenodd" clip-rule="evenodd" d="M8.38135 12.951H8.02242V13.3789L8.38135 12.951Z" fill="#E2A20F"/>
<path fill-rule="evenodd" clip-rule="evenodd" d="M5.03743 9.86862C5.03348 9.65418 4.86074 9.48061 4.64499 9.4743L4.43719 9.46822L4.64499 9.46214C4.86074 9.45583 5.03348 9.28226 5.03743 9.06781L5.04785 8.50195L5.05827 9.06781C5.06222 9.28226 5.23496 9.45583 5.45072 9.46214L5.65852 9.46822L5.45072 9.4743C5.23496 9.48061 5.06222 9.65418 5.05827 9.86862L5.04785 10.4345L5.03743 9.86862Z" fill="#F5F6F8"/>
<path fill-rule="evenodd" clip-rule="evenodd" d="M5.07167 9.54182L4.94365 9.61765L5.01996 9.49045L4.94365 9.36324L5.07167 9.43907L5.19969 9.36324L5.12338 9.49045L5.19969 9.61765L5.07167 9.54182Z" fill="white"/>
<g filter="url(#filter2_d_1458_45433)">
<path fill-rule="evenodd" clip-rule="evenodd" d="M7.9814 5.4082L9.93162 6.52703V8.76469L7.9814 9.88352L6.03119 8.76469V6.52703L7.9814 5.4082Z" fill="url(#paint8_linear_1458_45433)"/>
<path d="M10.1533 8.76465C10.1533 8.84422 10.111 8.91743 10.042 8.95703L8.0918 10.0762C8.02341 10.1154 7.93949 10.1153 7.87109 10.0762L5.9209 8.95703C5.85187 8.91743 5.80859 8.84423 5.80859 8.76465V6.52734C5.80859 6.44777 5.85187 6.37358 5.9209 6.33398L7.87109 5.21582L7.9248 5.19336C7.98052 5.17868 8.0405 5.18639 8.0918 5.21582L10.042 6.33398C10.111 6.37358 10.1533 6.44777 10.1533 6.52734V8.76465Z" stroke="url(#paint9_linear_1458_45433)" stroke-width="0.444267" stroke-linecap="round" stroke-linejoin="round"/>
<path d="M10.1533 8.76465C10.1533 8.84422 10.111 8.91743 10.042 8.95703L8.0918 10.0762C8.02341 10.1154 7.93949 10.1153 7.87109 10.0762L5.9209 8.95703C5.85187 8.91743 5.80859 8.84423 5.80859 8.76465V6.52734C5.80859 6.44777 5.85187 6.37358 5.9209 6.33398L7.87109 5.21582L7.9248 5.19336C7.98052 5.17868 8.0405 5.18639 8.0918 5.21582L10.042 6.33398C10.111 6.37358 10.1533 6.44777 10.1533 6.52734V8.76465Z" stroke="url(#paint10_linear_1458_45433)" stroke-width="0.444267" stroke-linecap="round" stroke-linejoin="round"/>
</g>
<g filter="url(#filter3_i_1458_45433)">
<path fill-rule="evenodd" clip-rule="evenodd" d="M6.11865 8.8045L6.79469 8.4043L7.97908 9.06362V9.86869L6.11865 8.8045Z" fill="url(#paint11_linear_1458_45433)"/>
</g>
<path fill-rule="evenodd" clip-rule="evenodd" d="M9.8418 8.8045L9.14878 8.4043L7.98136 9.06362V9.86869L9.8418 8.8045Z" fill="url(#paint12_linear_1458_45433)"/>
<g filter="url(#filter4_i_1458_45433)">
<path fill-rule="evenodd" clip-rule="evenodd" d="M7.9415 5.54753L7.92233 6.38259L6.79745 7.04307L6.09917 6.64861L7.9415 5.54753Z" fill="url(#paint13_linear_1458_45433)"/>
</g>
<path fill-rule="evenodd" clip-rule="evenodd" d="M7.92731 5.54963L7.91958 6.38469L9.1465 7.0524L9.83952 6.61497L7.92731 5.54963Z" fill="url(#paint14_linear_1458_45433)"/>
<path fill-rule="evenodd" clip-rule="evenodd" d="M6.09886 6.65301L6.79715 7.04746L6.79715 8.41033L6.1211 8.81053L6.09886 6.65301Z" fill="url(#paint15_linear_1458_45433)"/>
<path fill-rule="evenodd" clip-rule="evenodd" d="M9.84184 6.61656L9.14882 7.054L9.14882 8.40962L9.84184 8.80982L9.84184 6.61656Z" fill="url(#paint16_linear_1458_45433)"/>
<g filter="url(#filter5_d_1458_45433)">
<path fill-rule="evenodd" clip-rule="evenodd" d="M7.93145 6.36719L9.14917 7.06803V8.40641L7.93145 9.04574L6.79736 8.43627V7.09789L7.93145 6.36719Z" stroke="url(#paint17_linear_1458_45433)" stroke-width="0.333333" stroke-linecap="round" stroke-linejoin="round"/>
</g>
<path fill-rule="evenodd" clip-rule="evenodd" d="M9.26331 7.34775C9.26001 7.16904 9.11607 7.0244 8.93627 7.01914L8.66423 7.01118L8.93627 7.00322C9.11607 6.99796 9.26001 6.85332 9.26331 6.67462L9.2749 6.04491L9.2865 6.67462C9.28979 6.85332 9.43374 6.99796 9.61354 7.00322L9.88557 7.01118L9.61354 7.01914C9.43374 7.0244 9.28979 7.16904 9.2865 7.34775L9.2749 7.97745L9.26331 7.34775Z" fill="#F5F6F8"/>
<path fill-rule="evenodd" clip-rule="evenodd" d="M9.26401 7.05516L9.12636 7.13664L9.20841 6.99995L9.12636 6.86326L9.26401 6.94474L9.40167 6.86326L9.31961 6.99995L9.40167 7.13664L9.26401 7.05516Z" fill="white"/>
<defs>
<filter id="filter0_d_1458_45433" x="0.681641" y="0.272135" width="14.6431" height="16.0938" filterUnits="userSpaceOnUse" color-interpolation-filters="sRGB">
<feFlood flood-opacity="0" result="BackgroundImageFix"/>
<feColorMatrix in="SourceAlpha" type="matrix" values="0 0 0 0 0 0 0 0 0 0 0 0 0 0 0 0 0 0 127 0" result="hardAlpha"/>
<feOffset dy="0.666667"/>
<feGaussianBlur stdDeviation="1"/>
<feColorMatrix type="matrix" values="0 0 0 0 0 0 0 0 0 0 0 0 0 0 0 0 0 0 0.210582 0"/>
<feBlend mode="normal" in2="BackgroundImageFix" result="effect1_dropShadow_1458_45433"/>
<feBlend mode="normal" in="SourceGraphic" in2="effect1_dropShadow_1458_45433" result="shape"/>
</filter>
<filter id="filter1_i_1458_45433" x="3.4668" y="6.94271" width="4.54395" height="5.91667" filterUnits="userSpaceOnUse" color-interpolation-filters="sRGB">
<feFlood flood-opacity="0" result="BackgroundImageFix"/>
<feBlend mode="normal" in="SourceGraphic" in2="BackgroundImageFix" result="shape"/>
<feColorMatrix in="SourceAlpha" type="matrix" values="0 0 0 0 0 0 0 0 0 0 0 0 0 0 0 0 0 0 127 0" result="hardAlpha"/>
<feOffset dy="-0.666667"/>
<feGaussianBlur stdDeviation="0.333333"/>
<feComposite in2="hardAlpha" operator="arithmetic" k2="-1" k3="1"/>
<feColorMatrix type="matrix" values="0 0 0 0 1 0 0 0 0 1 0 0 0 0 1 0 0 0 0.329382 0"/>
<feBlend mode="normal" in2="shape" result="effect1_innerShadow_1458_45433"/>
</filter>
<filter id="filter2_d_1458_45433" x="4.92025" y="4.29818" width="6.1224" height="6.69661" filterUnits="userSpaceOnUse" color-interpolation-filters="sRGB">
<feFlood flood-opacity="0" result="BackgroundImageFix"/>
<feColorMatrix in="SourceAlpha" type="matrix" values="0 0 0 0 0 0 0 0 0 0 0 0 0 0 0 0 0 0 127 0" result="hardAlpha"/>
<feOffset/>
<feGaussianBlur stdDeviation="0.333333"/>
<feColorMatrix type="matrix" values="0 0 0 0 0.141707 0 0 0 0 0.283478 0 0 0 0 0.54478 0 0 0 1 0"/>
<feBlend mode="normal" in2="BackgroundImageFix" result="effect1_dropShadow_1458_45433"/>
<feBlend mode="normal" in="SourceGraphic" in2="effect1_dropShadow_1458_45433" result="shape"/>
</filter>
<filter id="filter3_i_1458_45433" x="6.11865" y="7.73763" width="1.86035" height="2.13151" filterUnits="userSpaceOnUse" color-interpolation-filters="sRGB">
<feFlood flood-opacity="0" result="BackgroundImageFix"/>
<feBlend mode="normal" in="SourceGraphic" in2="BackgroundImageFix" result="shape"/>
<feColorMatrix in="SourceAlpha" type="matrix" values="0 0 0 0 0 0 0 0 0 0 0 0 0 0 0 0 0 0 127 0" result="hardAlpha"/>
<feOffset dy="-0.666667"/>
<feGaussianBlur stdDeviation="0.333333"/>
<feComposite in2="hardAlpha" operator="arithmetic" k2="-1" k3="1"/>
<feColorMatrix type="matrix" values="0 0 0 0 1 0 0 0 0 1 0 0 0 0 1 0 0 0 0.329382 0"/>
<feBlend mode="normal" in2="shape" result="effect1_innerShadow_1458_45433"/>
</filter>
<filter id="filter4_i_1458_45433" x="6.09912" y="4.88021" width="1.84229" height="2.16276" filterUnits="userSpaceOnUse" color-interpolation-filters="sRGB">
<feFlood flood-opacity="0" result="BackgroundImageFix"/>
<feBlend mode="normal" in="SourceGraphic" in2="BackgroundImageFix" result="shape"/>
<feColorMatrix in="SourceAlpha" type="matrix" values="0 0 0 0 0 0 0 0 0 0 0 0 0 0 0 0 0 0 127 0" result="hardAlpha"/>
<feOffset dy="-0.666667"/>
<feGaussianBlur stdDeviation="0.333333"/>
<feComposite in2="hardAlpha" operator="arithmetic" k2="-1" k3="1"/>
<feColorMatrix type="matrix" values="0 0 0 0 1 0 0 0 0 1 0 0 0 0 1 0 0 0 0.329382 0"/>
<feBlend mode="normal" in2="shape" result="effect1_innerShadow_1458_45433"/>
</filter>
<filter id="filter5_d_1458_45433" x="5.96419" y="5.53451" width="4.01839" height="4.34505" filterUnits="userSpaceOnUse" color-interpolation-filters="sRGB">
<feFlood flood-opacity="0" result="BackgroundImageFix"/>
<feColorMatrix in="SourceAlpha" type="matrix" values="0 0 0 0 0 0 0 0 0 0 0 0 0 0 0 0 0 0 127 0" result="hardAlpha"/>
<feOffset/>
<feGaussianBlur stdDeviation="0.333333"/>
<feColorMatrix type="matrix" values="0 0 0 0 0.145098 0 0 0 0 0.298039 0 0 0 0 0.694118 0 0 0 1 0"/>
<feBlend mode="normal" in2="BackgroundImageFix" result="effect1_dropShadow_1458_45433"/>
<feBlend mode="normal" in="SourceGraphic" in2="effect1_dropShadow_1458_45433" result="shape"/>
</filter>
<linearGradient id="paint0_linear_1458_45433" x1="5.93834" y1="-1.3633" x2="-1.46867" y2="8.91656" gradientUnits="userSpaceOnUse">
<stop stop-color="#7EA4F0"/>
<stop offset="0.347908" stop-color="#D1D8FA"/>
<stop offset="0.697912" stop-color="#9BABF7"/>
<stop offset="1" stop-color="#5064C9"/>
</linearGradient>
<linearGradient id="paint1_linear_1458_45433" x1="5.4092" y1="1.57852" x2="2.8842" y2="11.8249" gradientUnits="userSpaceOnUse">
<stop stop-color="#DDE1E5"/>
<stop offset="1" stop-color="#8996A6"/>
</linearGradient>
<linearGradient id="paint2_linear_1458_45433" x1="4.26891" y1="4.7453" x2="6.63266" y2="8.44353" gradientUnits="userSpaceOnUse">
<stop stop-color="#264CB5"/>
<stop offset="1" stop-color="#338DD4"/>
</linearGradient>
<linearGradient id="paint3_linear_1458_45433" x1="13.2902" y1="4.26204" x2="9.62181" y2="0.987399" gradientUnits="userSpaceOnUse">
<stop stop-color="#568BE5"/>
<stop offset="1" stop-color="#75A3EF"/>
</linearGradient>
<linearGradient id="paint4_linear_1458_45433" x1="7.49801" y1="6.09271" x2="3.23155" y2="5.39766" gradientUnits="userSpaceOnUse">
<stop stop-color="#28A5F7"/>
<stop offset="1" stop-color="#2155AD"/>
</linearGradient>
<linearGradient id="paint5_linear_1458_45433" x1="5.39338" y1="8.50394" x2="3.38665" y2="11.3588" gradientUnits="userSpaceOnUse">
<stop stop-color="#4191E5"/>
<stop offset="1" stop-color="#399EEA"/>
</linearGradient>
<linearGradient id="paint6_linear_1458_45433" x1="6.23019" y1="9.58898" x2="8.73641" y2="14.1998" gradientUnits="userSpaceOnUse">
<stop stop-color="#82E2F3"/>
<stop offset="1" stop-color="#2E81F2"/>
</linearGradient>
<linearGradient id="paint7_linear_1458_45433" x1="8.52983" y1="9.13195" x2="12.7206" y2="9.85729" gradientUnits="userSpaceOnUse">
<stop stop-color="#3E78D3"/>
<stop offset="1" stop-color="#3A69C9"/>
</linearGradient>
<linearGradient id="paint8_linear_1458_45433" x1="13.2734" y1="9.07732" x2="9.40964" y2="3.01325" gradientUnits="userSpaceOnUse">
<stop stop-color="#AEBCD0"/>
<stop offset="0.199324" stop-color="#E2A20F"/>
<stop offset="0.340527" stop-color="#FDF6D7"/>
<stop offset="0.477726" stop-color="#FFFBE2"/>
<stop offset="0.613941" stop-color="#F1DB8A"/>
<stop offset="0.675747" stop-color="#FFF9E2"/>
<stop offset="1" stop-color="#E2A20F"/>
</linearGradient>
<linearGradient id="paint9_linear_1458_45433" x1="12.0329" y1="7.46866" x2="7.84615" y2="3.28831" gradientUnits="userSpaceOnUse">
<stop stop-color="#0C1C66"/>
<stop offset="1" stop-color="#0C1C66"/>
</linearGradient>
<linearGradient id="paint10_linear_1458_45433" x1="12.4852" y1="7.64586" x2="8.01" y2="3.14213" gradientUnits="userSpaceOnUse">
<stop stop-color="#6E9DEC"/>
<stop offset="1" stop-color="#6B9BEC"/>
</linearGradient>
<linearGradient id="paint11_linear_1458_45433" x1="6.90745" y1="8.65384" x2="6.44393" y2="9.62169" gradientUnits="userSpaceOnUse">
<stop stop-color="#4191E5"/>
<stop offset="1" stop-color="#399EEA"/>
</linearGradient>
<linearGradient id="paint12_linear_1458_45433" x1="9.05255" y1="8.25104" x2="9.66216" y2="9.7272" gradientUnits="userSpaceOnUse">
<stop stop-color="#82E2F3"/>
<stop offset="1" stop-color="#2E81F2"/>
</linearGradient>
<linearGradient id="paint13_linear_1458_45433" x1="7.67905" y1="6.31193" x2="7.07499" y2="5.44198" gradientUnits="userSpaceOnUse">
<stop stop-color="#4191E5"/>
<stop offset="1" stop-color="#399EEA"/>
</linearGradient>
<linearGradient id="paint14_linear_1458_45433" x1="8.31922" y1="5.7179" x2="9.73697" y2="5.57937" gradientUnits="userSpaceOnUse">
<stop stop-color="#264CB5"/>
<stop offset="1" stop-color="#338DD4"/>
</linearGradient>
<linearGradient id="paint15_linear_1458_45433" x1="6.68865" y1="6.6952" x2="5.13693" y2="6.92335" gradientUnits="userSpaceOnUse">
<stop stop-color="#B0D8FF"/>
<stop offset="1" stop-color="#FEFEFF" stop-opacity="0.01"/>
</linearGradient>
<linearGradient id="paint16_linear_1458_45433" x1="8.8209" y1="7.44799" x2="10.1942" y2="7.47749" gradientUnits="userSpaceOnUse">
<stop stop-color="#3E78D3"/>
<stop offset="1" stop-color="#3A69C9"/>
</linearGradient>
<linearGradient id="paint17_linear_1458_45433" x1="9.87897" y1="6.93069" x2="7.19343" y2="5.75504" gradientUnits="userSpaceOnUse">
<stop stop-color="white"/>
<stop offset="0.274808" stop-color="#EDFAF6" stop-opacity="0.01"/>
<stop offset="0.746773" stop-color="white" stop-opacity="0.01"/>
<stop offset="1" stop-color="white"/>
</linearGradient>
</defs>
</svg>
