<svg width="10" height="10" viewBox="0 0 10 10" fill="none" xmlns="http://www.w3.org/2000/svg">
<path d="M2.9502 9.17646L4.0582 8.54979C4.22702 8.46226 4.41551 8.41958 4.60557 8.42589C4.79563 8.43219 4.98087 8.48728 5.14352 8.5858L6.27019 9.19379C6.45901 9.29838 6.67378 9.34687 6.88922 9.33356C7.10466 9.32025 7.31182 9.24571 7.48633 9.11868C7.66084 8.99164 7.79545 8.81741 7.87432 8.61648C7.95319 8.41555 7.97304 8.19626 7.93153 7.98444L7.71553 6.66177C7.692 6.47699 7.711 6.28929 7.77108 6.11298C7.83116 5.93667 7.93074 5.7764 8.0622 5.64443L8.98219 4.73513C9.1355 4.58055 9.2443 4.3875 9.29711 4.17629C9.34992 3.96509 9.3448 3.74352 9.28229 3.53498C9.21978 3.32643 9.1022 3.13861 8.94192 2.99128C8.78163 2.84394 8.58459 2.74254 8.37153 2.69778L7.11953 2.53111C6.94063 2.49187 6.77284 2.41289 6.62859 2.30003C6.48434 2.18717 6.36732 2.04334 6.28619 1.87913L5.71419 0.679101C5.62749 0.481313 5.48613 0.312402 5.30674 0.192163C5.12735 0.0719234 4.91738 0.00534947 4.70148 0.000309009C4.48558 -0.00473145 4.27273 0.0519836 4.08792 0.16372C3.90312 0.275457 3.75404 0.437602 3.65819 0.631128L3.07152 1.80044C2.98956 1.96433 2.87002 2.10653 2.72265 2.21544C2.57528 2.32434 2.40426 2.39687 2.22353 2.42711L0.982189 2.60712C0.770679 2.63728 0.571887 2.72619 0.408417 2.86375C0.244948 3.00131 0.123367 3.18199 0.0575161 3.38524C-0.00833429 3.58848 -0.0158109 3.80616 0.03593 4.01345C0.087671 4.22074 0.19655 4.40934 0.35019 4.5578L1.22486 5.51378C1.35865 5.64751 1.45568 5.81349 1.50659 5.99567C1.55751 6.17785 1.56058 6.37006 1.51552 6.55378L1.28353 7.86444C1.24592 8.07854 1.26718 8.29886 1.34502 8.50181C1.42287 8.70477 1.55438 8.88275 1.72552 9.01679C1.89665 9.15082 2.10098 9.23585 2.31668 9.2628C2.53238 9.28975 2.75135 9.2576 2.9502 9.16978" fill="#FEF0E9"/>
<path d="M1.32455 7.89811L1.55656 6.58614C1.59388 6.39476 1.58307 6.19708 1.52513 6.01091C1.46718 5.82473 1.3639 5.65585 1.22456 5.51945L0.349885 4.56213C0.157624 4.3704 0.0366768 4.11871 0.00709084 3.8488C-0.0224951 3.57888 0.0410652 3.30696 0.187226 3.07812C-0.212774 3.98746 1.72856 4.55545 2.46856 5.06612C2.68386 5.19226 2.85081 5.38676 2.94286 5.61869C3.03491 5.85063 3.04677 6.10666 2.97655 6.34611C2.97655 6.34611 2.57655 7.25547 2.05388 8.33813C1.61388 9.21547 2.40723 9.29277 2.66856 9.29411C2.48111 9.32398 2.28922 9.30823 2.10917 9.24813C1.92913 9.18802 1.76624 9.08534 1.63433 8.94885C1.50242 8.81236 1.40539 8.64606 1.35146 8.46407C1.29753 8.28208 1.2883 8.08976 1.32455 7.90344" fill="white"/>
<path d="M6.43816 3.55779C6.20195 3.54534 5.97529 3.4605 5.78899 3.31475C5.60269 3.169 5.46577 2.96941 5.39683 2.74313C5.39683 2.74313 5.1995 1.84315 5.04616 0.704479C4.81816 -0.422188 3.97949 0.279145 3.97949 0.279145C4.11047 0.165432 4.26649 0.0842859 4.4348 0.0423692C4.60312 0.000452553 4.77896 -0.00106901 4.94798 0.037934C5.11699 0.076937 5.27438 0.155382 5.40731 0.266816C5.54023 0.378249 5.64492 0.519519 5.71283 0.679129L6.28483 1.87912C6.3658 2.04344 6.48277 2.18742 6.62704 2.3003C6.77132 2.41319 6.93919 2.49208 7.11816 2.53114L8.38083 2.77247C8.64588 2.82237 8.88483 2.9642 9.05556 3.17298C9.2263 3.38177 9.31787 3.6441 9.31416 3.91379C9.28349 3.95646 9.29283 4.03248 9.2315 4.11915C9.14883 3.24048 7.30083 3.6258 6.4315 3.55913" fill="#FEE6DA"/>
</svg>
