<svg width="10" height="8" viewBox="0 0 10 8" fill="none" xmlns="http://www.w3.org/2000/svg">
<path d="M4.56832 7.76029L4.66963 7.87296L4.75893 7.77616L6.73702 2.68895H2.42629L4.56832 7.76029ZM0.126953 2.81172L2.42895 2.6875L0.126953 2.81172Z" fill="#F2B8ED"/>
<path d="M2.42536 2.68664L4.61138 0H1.60026L2.42536 2.68664ZM6.73608 2.68664L7.56384 0H4.61138L6.73608 2.68664Z" fill="#FFEBFD"/>
<path d="M6.73535 2.68664L9.33326 2.81518L7.56311 0L6.73535 2.68664ZM1.59953 0L0 2.81518H0.122624L2.42195 2.69242L1.59953 0ZM2.42462 2.68664H6.73535L4.61065 0L2.42462 2.68664Z" fill="#FBDAF8"/>
<path d="M6.7352 2.6875L4.75713 7.77471L4.66782 8.00005L9.33311 2.81604L6.7352 2.6875ZM2.42448 2.6875L0.12248 2.81172H0.0625L4.66782 7.99573L4.56651 7.75452L2.42448 2.6875Z" fill="#E5A3DF"/>
</svg>
