<svg width="11" height="11" viewBox="0 0 11 11" fill="none" xmlns="http://www.w3.org/2000/svg">
<circle cx="5.5" cy="5.5" r="5.5" fill="#0AC1DA"/>
<g filter="url(#filter0_d_1099_58022)">
<path d="M3.34689 7.9369C4.23564 7.77863 5.43862 7.51949 7.53927 7.92909L7.62814 8.43983C7.66549 8.65439 7.51048 8.82851 7.28634 8.82851H3.59982C3.37425 8.82833 3.22203 8.65151 3.259 8.43983L3.34689 7.9369ZM5.52755 4.34218C6.4024 3.01812 7.59284 3.08724 8.34982 4.04042C8.96206 4.81164 9.01739 5.73945 8.33517 6.50429C8.09386 6.77525 7.87537 7.05288 7.68185 7.32265C7.34736 7.2627 7.01611 7.21843 6.69357 7.18886C6.99501 6.88712 7.33441 6.53051 7.46701 6.32948C7.72751 5.93484 7.68014 5.59863 7.51779 5.48671C7.35535 5.37523 7.01199 5.60468 6.75119 5.9994C6.5963 6.23398 6.36522 6.76187 6.20236 7.15272C5.66081 7.12515 5.1502 7.13411 4.68869 7.16249C4.52542 6.77083 4.29244 6.23559 4.13595 5.9994C3.8752 5.60469 3.53185 5.37541 3.36935 5.48671C3.20691 5.59859 3.15948 5.93472 3.42013 6.32948C3.55432 6.53291 3.90066 6.89644 4.20529 7.20058C3.82063 7.23774 3.48297 7.28508 3.20822 7.33144L3.20919 7.32753C3.01487 7.05656 2.79487 6.77685 2.55197 6.50429C1.86956 5.73937 1.92492 4.81172 2.53732 4.04042C3.2943 3.08724 4.48376 3.01812 5.35861 4.34218C5.38799 4.38721 5.41499 4.43558 5.44357 4.48183C5.4717 4.43568 5.49824 4.38714 5.52755 4.34218ZM5.44357 2.05897C5.76297 2.0591 6.02267 2.31055 6.02267 2.61952C6.02258 2.9282 5.76292 3.17896 5.44357 3.17909C5.12411 3.17909 4.86358 2.92828 4.86349 2.61952C4.86349 2.31047 5.12405 2.05897 5.44357 2.05897Z" fill="url(#paint0_linear_1099_58022)"/>
</g>
<defs>
<filter id="filter0_d_1099_58022" x="1.05897" y="1.05897" width="8.76906" height="8.76953" filterUnits="userSpaceOnUse" color-interpolation-filters="sRGB">
<feFlood flood-opacity="0" result="BackgroundImageFix"/>
<feColorMatrix in="SourceAlpha" type="matrix" values="0 0 0 0 0 0 0 0 0 0 0 0 0 0 0 0 0 0 127 0" result="hardAlpha"/>
<feOffset/>
<feGaussianBlur stdDeviation="0.5"/>
<feColorMatrix type="matrix" values="0 0 0 0 0 0 0 0 0 0 0 0 0 0 0 0 0 0 0.16 0"/>
<feBlend mode="normal" in2="BackgroundImageFix" result="effect1_dropShadow_1099_58022"/>
<feBlend mode="normal" in="SourceGraphic" in2="effect1_dropShadow_1099_58022" result="shape"/>
</filter>
<linearGradient id="paint0_linear_1099_58022" x1="3.11816" y1="4.48978" x2="3.11816" y2="9.14074" gradientUnits="userSpaceOnUse">
<stop stop-color="white"/>
<stop offset="1" stop-color="white" stop-opacity="0.84"/>
<stop offset="1" stop-color="white" stop-opacity="0.697803"/>
</linearGradient>
</defs>
</svg>
