<svg width="10" height="8" viewBox="0 0 10 8" fill="none" xmlns="http://www.w3.org/2000/svg">
<path d="M0.880697 4.2479C1.04452 2.86847 2.67535 1.78125 4.66682 1.78125C6.65829 1.78125 8.28969 2.86847 8.45294 4.2479H0.880697Z" fill="#FF5C87"/>
<path d="M4.66705 7.03339V0.638021C4.66705 0.638021 4.12837 4.01853 2.30982 4.01853C1.89794 4.00527 1.50061 3.87058 1.173 3.63317C0.845392 3.39576 0.603745 3.06739 0.481608 2.69366L1.39572 7.03339H4.66705Z" fill="#FFD821"/>
<path d="M4.66781 7.03339V0.638021C4.66781 0.638021 5.20648 4.01853 7.02502 4.01853C7.43691 4.00527 7.83423 3.87058 8.16184 3.63317C8.48945 3.39576 8.73113 3.06739 8.85326 2.69366L7.93912 7.03339H4.66781Z" fill="#FFAA29"/>
<path d="M3.70492 4.93206C3.70492 5.11283 3.76137 5.28953 3.86715 5.43983C3.97294 5.59012 4.12329 5.70725 4.29919 5.7764C4.47509 5.84555 4.66863 5.86363 4.85535 5.82832C5.04206 5.79302 5.21356 5.70594 5.34814 5.57808C5.48272 5.45022 5.57434 5.28731 5.61141 5.11001C5.64849 4.9327 5.62933 4.74894 5.5564 4.58197C5.48347 4.41499 5.36002 4.27233 5.20167 4.17198C5.04332 4.07163 4.85719 4.01812 4.66681 4.01823C4.41165 4.01837 4.16698 4.11471 3.9866 4.28607C3.80623 4.45744 3.70492 4.68978 3.70492 4.93206Z" fill="#FF5C87"/>
<path d="M1.85272 7.13281H7.48412C7.60534 7.13281 7.72159 7.17854 7.8073 7.25993C7.89302 7.34131 7.94118 7.4517 7.94118 7.5668C7.94118 7.6819 7.89302 7.79226 7.8073 7.87364C7.72159 7.95503 7.60534 8.00076 7.48412 8.00076H1.85272C1.7315 8.00076 1.61525 7.95503 1.52954 7.87364C1.44382 7.79226 1.39567 7.6819 1.39567 7.5668C1.39567 7.4517 1.44382 7.34131 1.52954 7.25993C1.61525 7.17854 1.7315 7.13281 1.85272 7.13281V7.13281Z" fill="#FEAD2A"/>
<path d="M0 3.01594C0 3.12437 0.0338618 3.23036 0.097303 3.32051C0.160744 3.41066 0.250913 3.48092 0.356412 3.52242C0.461911 3.56391 0.577999 3.57476 0.689996 3.55361C0.801993 3.53246 0.90487 3.48025 0.985615 3.40358C1.06636 3.32691 1.12135 3.22923 1.14363 3.12289C1.16591 3.01655 1.15447 2.90632 1.11077 2.80615C1.06707 2.70598 0.993071 2.62036 0.898125 2.56012C0.803178 2.49989 0.691551 2.46774 0.57736 2.46774C0.424235 2.46774 0.277381 2.52549 0.169105 2.6283C0.0608291 2.73111 0 2.87055 0 3.01594V3.01594ZM8.17861 3.01594C8.17857 3.13661 8.22047 3.25393 8.2978 3.34969C8.37514 3.44545 8.48359 3.5143 8.60633 3.54558C8.72908 3.57685 8.85927 3.5688 8.9767 3.52266C9.09414 3.47653 9.19226 3.39489 9.25586 3.29041C9.31945 3.18593 9.34496 3.06445 9.32843 2.9448C9.3119 2.82515 9.25425 2.71403 9.16443 2.62866C9.07461 2.54329 8.95763 2.48844 8.83164 2.47263C8.70565 2.45681 8.57768 2.48091 8.46758 2.54119C8.37976 2.58927 8.30682 2.65845 8.25609 2.74179C8.20536 2.82513 8.17864 2.91969 8.17861 3.01594ZM3.99317 0.639482C3.99317 0.76596 4.03267 0.889595 4.10668 0.994758C4.18068 1.09992 4.28587 1.18189 4.40893 1.23029C4.532 1.27869 4.66741 1.29135 4.79806 1.26668C4.9287 1.242 5.04871 1.1811 5.1429 1.09166C5.23709 1.00223 5.30123 0.888287 5.32722 0.764239C5.35321 0.640192 5.33987 0.51161 5.28889 0.39476C5.23792 0.27791 5.15159 0.178039 5.04084 0.107772C4.93008 0.0375046 4.79987 0 4.66667 0C4.57813 -1.19939e-07 4.49046 0.0165759 4.40867 0.0487804C4.32688 0.080985 4.25259 0.128184 4.19003 0.18768C4.12748 0.247176 4.07789 0.317799 4.04411 0.39551C4.01033 0.47322 3.99302 0.556493 3.99317 0.640562V0.639482Z" fill="#FFC000"/>
<path d="M4.66681 4.02344V4.9373H3.70492L4.66681 4.02344Z" fill="#FFC2B4"/>
</svg>
