<svg width="32" height="32" viewBox="0 0 32 32" fill="none" xmlns="http://www.w3.org/2000/svg">
<rect width="32" height="32" rx="16" fill="#ECEFF0"/>
<path fill-rule="evenodd" clip-rule="evenodd" d="M8.39418 6.74687L4.01799 15.9206C4.00134 15.9547 3.99606 15.9933 4.00293 16.0306C4.0098 16.0679 4.02846 16.1021 4.05617 16.1281L15.8752 27.4308C15.9088 27.463 15.9535 27.4809 16 27.4809C16.0465 27.4809 16.0912 27.463 16.1248 27.4308L27.9438 16.1288C27.9715 16.1028 27.9902 16.0686 27.9971 16.0313C28.0039 15.994 27.9987 15.9554 27.982 15.9213L23.6058 6.74757C23.5917 6.71676 23.569 6.69066 23.5404 6.67239C23.5118 6.65412 23.4786 6.64446 23.4446 6.64454H8.55681C8.5227 6.64412 8.48919 6.65356 8.46034 6.67171C8.43148 6.68987 8.4085 6.71597 8.39418 6.74687Z" fill="#50AF95"/>
<path fill-rule="evenodd" clip-rule="evenodd" d="M17.5184 16.8636C17.4336 16.8699 16.9952 16.896 16.0173 16.896C15.2395 16.896 14.6872 16.8728 14.4935 16.8636C11.4876 16.7316 9.24405 16.2094 9.24405 15.5842C9.24405 14.959 11.4876 14.4375 14.4935 14.3034V16.3435C14.6901 16.3576 15.2529 16.3908 16.0307 16.3908C16.9641 16.3908 17.4315 16.352 17.5156 16.3442V14.3048C20.5151 14.4382 22.7537 14.9604 22.7537 15.5842C22.7537 16.208 20.5158 16.7302 17.5156 16.8629L17.5184 16.8636ZM17.5184 14.0938V12.2683H21.7044V9.48438H10.3075V12.2683H14.4928V14.0931C11.091 14.2491 8.53271 14.9216 8.53271 15.7275C8.53271 16.5333 11.091 17.2051 14.4928 17.3618V23.2118H17.5177V17.3597C20.9118 17.2037 23.4658 16.5319 23.4658 15.7268C23.4658 14.9216 20.9139 14.2498 17.5177 14.0931L17.5184 14.0938Z" fill="white"/>
</svg>
