<svg width="60" height="60" viewBox="0 0 60 60" fill="none" xmlns="http://www.w3.org/2000/svg">
<rect width="60" height="60" rx="10" fill="#F7F7F7"/>
<path d="M32.0432 23.7758L35.7841 26.9915C37.2614 28.2613 38 28.8962 38 29.7142C38 30.5322 37.2614 31.1671 35.7841 32.4369L32.0432 35.6526C31.3689 36.2323 31.0317 36.5221 30.7538 36.4014C30.4758 36.2807 30.4758 35.8444 30.4758 34.972V32.8367C27.0855 32.8367 23.4126 34.3979 22 37C22 28.6734 27.0227 26.5917 30.4758 26.5917V24.4564C30.4758 23.584 30.4758 23.1477 30.7538 23.027C31.0317 22.9063 31.3689 23.1961 32.0432 23.7758Z" stroke="#22252D" stroke-width="1.69516" stroke-linecap="round" stroke-linejoin="round"/>
</svg>
