<svg width="40" height="40" viewBox="0 0 40 40" fill="none" xmlns="http://www.w3.org/2000/svg">
<path d="M20 40C31.0457 40 40 31.0457 40 20C40 8.95431 31.0457 0 20 0C8.95431 0 0 8.95431 0 20C0 31.0457 8.95431 40 20 40Z" fill="black" fill-opacity="0.3"/>
<path d="M27.4776 11.4413C26.6565 11.4002 25.8355 11.5241 25.0631 11.8057C24.2907 12.0873 23.5827 12.521 22.9808 13.081C22.3789 13.641 21.8954 14.3161 21.5589 15.0662C21.2224 15.8163 21.0397 16.6262 21.0216 17.4482C21.0216 17.4562 21.0216 17.4562 21.0216 17.4482C21.0035 16.6262 20.8209 15.8163 20.4843 15.0662C20.1478 14.3161 19.6643 13.641 19.0625 13.081C18.4606 12.521 17.7525 12.0873 16.9801 11.8057C16.2077 11.5241 15.3867 11.4002 14.5656 11.4413C13.6621 11.521 12.7857 11.7916 11.9945 12.2352C11.2034 12.6788 10.5154 13.2853 9.97607 14.0146C9.43678 14.744 9.05846 15.5795 8.86615 16.4659C8.67383 17.3523 8.6719 18.2695 8.86047 19.1567C9.99304 25.5122 17.8136 29.887 20.2799 31.1213C20.5105 31.2368 20.7648 31.297 21.0228 31.297C21.2807 31.297 21.535 31.2368 21.7656 31.1213C24.2308 29.887 32.0513 25.5122 33.185 19.1567C33.3738 18.2693 33.3719 17.3519 33.1796 16.4652C32.9872 15.5786 32.6087 14.7429 32.0691 14.0135C31.5296 13.2841 30.8412 12.6776 30.0497 12.2342C29.2581 11.7907 28.3814 11.5205 27.4776 11.4413Z" fill="url(#paint0_radial_1443_42662)"/>
<path d="M8.93221 19.5157C8.94593 19.5774 8.95964 19.6403 8.9745 19.702L8.99964 19.8014C9.01411 19.8601 9.02935 19.9184 9.04535 19.9763L9.07278 20.0734C9.09107 20.1363 9.10936 20.1992 9.12878 20.262L9.15278 20.3397C9.18021 20.4266 9.20878 20.5134 9.2385 20.6003L9.25907 20.6586C9.28269 20.7256 9.30707 20.7927 9.33221 20.8597L9.36993 20.9557C9.39126 21.0098 9.41259 21.0639 9.43393 21.118L9.47736 21.222C9.49907 21.2734 9.52193 21.326 9.54478 21.3774L9.58936 21.478C9.6145 21.5351 9.64193 21.5923 9.66821 21.6483L9.70592 21.7294C9.74402 21.8056 9.78212 21.8849 9.82021 21.9672L9.87164 22.0654L9.94821 22.2094L10.0111 22.3237L10.0819 22.4506L10.1494 22.5649L10.2214 22.6849L10.2934 22.7992L10.3654 22.9134C10.4149 22.9896 10.4652 23.0681 10.5162 23.1489L10.5756 23.2403L10.6682 23.3774L10.7288 23.4666L10.8259 23.6049L10.8842 23.686L10.9882 23.8289L11.0362 23.8929C11.1741 24.0773 11.3162 24.2586 11.4625 24.4369L11.6042 24.6072L11.6328 24.6414L11.7756 24.8083L11.7996 24.8357C12.1254 25.2083 12.4659 25.5683 12.8156 25.9134L12.8248 25.9226C15.037 28.0096 17.5456 29.758 20.2694 31.1111C20.4999 31.2267 20.7543 31.2868 21.0122 31.2868C21.2701 31.2868 21.5245 31.2267 21.7551 31.1111C23.4921 30.2376 25.1495 29.2139 26.7082 28.0517L17.9802 19.3226C17.6985 19.007 17.3568 18.7506 16.9749 18.5685C16.5931 18.3864 16.1788 18.2822 15.7562 18.262C15.0463 18.2264 14.3435 18.4177 13.7495 18.808C13.1555 19.1984 12.7012 19.7677 12.4522 20.4334L11.3756 19.3626C11.0458 18.9967 10.639 18.7082 10.1846 18.5179C9.73016 18.3277 9.23926 18.2403 8.74707 18.262C8.74707 18.3294 8.75507 18.398 8.75964 18.4654C8.75964 18.4849 8.75964 18.5043 8.75964 18.5249C8.76345 18.5736 8.76802 18.622 8.77335 18.67C8.77335 18.6929 8.77602 18.7157 8.78135 18.7386C8.78669 18.7866 8.79278 18.8342 8.79964 18.8814C8.79964 18.902 8.79964 18.9237 8.80878 18.9443C8.81907 19.0117 8.82936 19.0791 8.84193 19.1477C8.85793 19.2391 8.87621 19.3306 8.89564 19.4209C8.90135 19.4506 8.90821 19.4791 8.91507 19.5077L8.93221 19.5157Z" fill="url(#paint1_linear_1443_42662)"/>
<path d="M15.7646 18.2698C15.3175 18.2474 14.8704 18.3149 14.4498 18.4682C14.0292 18.6216 13.6437 18.8577 13.3159 19.1626C12.9882 19.4676 12.7249 19.8352 12.5417 20.2436C12.3584 20.6521 12.259 21.0931 12.2491 21.5407C12.2393 21.0931 12.1398 20.6521 11.9566 20.2436C11.7734 19.8352 11.5101 19.4676 11.1824 19.1626C10.8546 18.8577 10.4691 18.6216 10.0485 18.4682C9.62789 18.3149 9.18082 18.2474 8.73372 18.2698C8.24164 18.3131 7.76435 18.4603 7.33343 18.7018C6.9025 18.9433 6.52777 19.2735 6.23402 19.6707C5.94027 20.0678 5.73419 20.5228 5.62943 21.0056C5.52466 21.4883 5.52359 21.9878 5.62629 22.471C6.24229 25.9315 10.5017 28.3132 11.8434 28.9852C11.969 29.0482 12.1075 29.081 12.248 29.081C12.3885 29.081 12.527 29.0482 12.6526 28.9852C13.9954 28.3132 18.2526 25.9315 18.8697 22.471C18.9724 21.988 18.9714 21.4886 18.8668 21.006C18.7621 20.5235 18.5563 20.0686 18.2628 19.6715C17.9692 19.2744 17.5948 18.9441 17.1641 18.7025C16.7335 18.4608 16.2565 18.3134 15.7646 18.2698Z" fill="url(#paint2_linear_1443_42662)"/>
<defs>
<radialGradient id="paint0_radial_1443_42662" cx="0" cy="0" r="1" gradientUnits="userSpaceOnUse" gradientTransform="translate(4.1119 16.8762) scale(13.5157 13.4873)">
<stop stop-color="#FF4974"/>
<stop offset="0.45" stop-color="#FE4773"/>
<stop offset="0.629" stop-color="#FC406D"/>
<stop offset="0.761" stop-color="#F73464"/>
<stop offset="0.868" stop-color="#F12257"/>
<stop offset="0.961" stop-color="#E80C46"/>
<stop offset="1" stop-color="#E4003D"/>
</radialGradient>
<linearGradient id="paint1_linear_1443_42662" x1="21.715" y1="29.1371" x2="17.669" y2="20.7401" gradientUnits="userSpaceOnUse">
<stop stop-color="#E4003D" stop-opacity="0"/>
<stop offset="1" stop-color="#E4003D"/>
</linearGradient>
<linearGradient id="paint2_linear_1443_42662" x1="9.31431" y1="18.5468" x2="13.8698" y2="26.8159" gradientUnits="userSpaceOnUse">
<stop stop-color="#FFE548"/>
<stop offset="0.176" stop-color="#FFDE50"/>
<stop offset="0.445" stop-color="#FFCA65"/>
<stop offset="0.771" stop-color="#FFAA87"/>
<stop offset="1" stop-color="#FF90A4"/>
</linearGradient>
</defs>
</svg>
