<svg width="16" height="16" viewBox="0 0 16 16" fill="none" xmlns="http://www.w3.org/2000/svg">
<path d="M8 16C12.4183 16 16 12.4183 16 8C16 3.58172 12.4183 0 8 0C3.58172 0 0 3.58172 0 8C0 12.4183 3.58172 16 8 16Z" fill="#3751FF"/>
<path d="M8 15C11.866 15 15 11.866 15 8C15 4.13401 11.866 1 8 1C4.13401 1 1 4.13401 1 8C1 11.866 4.13401 15 8 15Z" fill="url(#paint0_linear_1466_64737)"/>
<path d="M10.336 7.86971V9.54971H6.44V9.97371H10.712V12.1097H9.952V11.8217H6.44V12.1017H5.68V7.86971H10.336ZM6.44 11.1497H9.952V10.5737H6.44V11.1497ZM6.44 8.94171H9.592V8.47771H6.44V8.94171ZM11.44 6.86971V8.39771H10.696V7.50971H5.304V8.39771H4.56V6.86971H7.656C7.592 6.70971 7.52 6.56571 7.448 6.43771L8.12 6.32571L7.984 6.23771C8.352 5.75771 8.624 5.24571 8.784 4.69371L9.512 4.85371C9.464 4.98971 9.424 5.11771 9.376 5.24571H11.6V5.90971H10.296C10.424 6.08571 10.528 6.26171 10.616 6.42171L9.944 6.66971C9.816 6.41371 9.664 6.15771 9.488 5.90971H9.08C8.944 6.17371 8.792 6.42171 8.624 6.64571L8.24 6.39771C8.304 6.54171 8.36 6.70171 8.424 6.86971H11.44ZM5.64 5.90971C5.464 6.19771 5.272 6.46971 5.064 6.71771L4.4 6.30171C4.864 5.80571 5.192 5.26171 5.392 4.68571L6.12 4.84571C6.072 4.98171 6.016 5.11771 5.968 5.24571H7.984V5.90971H6.784C6.928 6.10971 7.056 6.30171 7.152 6.48571L6.456 6.74971C6.32 6.46171 6.168 6.18171 5.992 5.90971H5.64Z" fill="white"/>
<defs>
<linearGradient id="paint0_linear_1466_64737" x1="1" y1="8" x2="15" y2="8" gradientUnits="userSpaceOnUse">
<stop stop-color="#3751FF"/>
<stop offset="1" stop-color="#912EEF"/>
</linearGradient>
</defs>
</svg>
